<svg xmlns="http://www.w3.org/2000/svg" xmlns:xlink="http://www.w3.org/1999/xlink" version="1.1" x="0px" y="0px" viewBox="0 0 68 85" style="enable-background:new 0 0 68 68;" xml:space="preserve"><g><g><path d="M43.1045113,51.3102798H24.8789253c-0.5527344,0-1-0.4472656-1-1v-1.1210938    c0-4.9912109-1.7128906-9.5820313-4.8222656-12.9277344c-3.5117178-3.7783203-5.4462881-8.7050762-5.4462881-13.8720684    c0-5.7832031,2.4736319-11.3173828,6.7861319-15.1835938c4.3710938-3.9189451,10.0205078-5.7216797,15.8935547-5.0791016    c9.4003906,1.0283203,16.9609375,8.5996094,17.9755859,18.0039063c0.6279297,5.8125-1.1435547,11.4101563-4.9902344,15.7617168    c-3.3339844,3.7724609-5.1708984,8.3623047-5.1708984,12.9248047v1.4931641    C44.1045113,50.8630142,43.6572456,51.3102798,43.1045113,51.3102798z M25.8789253,49.3102798h16.2255859v-0.4931641    c0-5.0507813,2.0146484-10.1113281,5.6728516-14.2490234c3.46875-3.9257793,5.0673828-8.9765606,4.5-14.2226543l0,0    c-0.9150391-8.4775391-7.7304688-15.3037109-16.2041016-16.2304688    c-5.3085938-0.5830076-10.3994141,1.0449219-14.3417969,4.5800786c-3.8896484,3.4873047-6.1210928,8.4785156-6.1210928,13.6943359    c0,4.6601563,1.7441397,9.1025391,4.9111319,12.5107403c3.4550781,3.7158203,5.3574219,8.7910156,5.3574219,14.2890625V49.3102798    z"/></g><g><path d="M33.9990425,66.0007095c-4.8808594,0-8.8525391-3.9716797-8.8525391-8.8525391v-6.8388672c0-0.5527344,0.4472656-1,1-1    h15.7050781c0.5527344,0,1,0.4472656,1,1v6.8388672C42.8515816,62.0290298,38.8799019,66.0007095,33.9990425,66.0007095z     M27.1465034,51.3093033v5.8388672c0,3.7783203,3.0742188,6.8525391,6.8525391,6.8525391s6.8525391-3.0742188,6.8525391-6.8525391    v-5.8388672H27.1465034z"/></g><g><path d="M38.3857613,51.1979752h-8.8847656c-0.5527344,0-1-0.4472656-1-1V22.7721958c0-0.5527344,0.4472656-1,1-1h8.8847656    c0.5527344,0,1,0.4472656,1,1v27.4257793C39.3857613,50.7507095,38.9384956,51.1979752,38.3857613,51.1979752z     M30.5009956,49.1979752h6.8847656V23.7721958h-6.8847656V49.1979752z"/></g><g><path d="M38.3857613,23.7721958h-8.8847656c-0.3310547,0-0.640625-0.1640625-0.8271484-0.4384766    c-0.1865234-0.2734375-0.2246094-0.6220703-0.1025391-0.9296875l4.4423828-11.2050781    c0.1513672-0.3818359,0.5195313-0.6318359,0.9296875-0.6318359s0.7783203,0.25,0.9296875,0.6318359l4.4423828,11.2050781    c0.1220703,0.3076172,0.0839844,0.65625-0.1025391,0.9296875C39.0263863,23.6081333,38.7168159,23.7721958,38.3857613,23.7721958z     M30.9736519,21.7721958h5.9394531l-2.9697266-7.4921875L30.9736519,21.7721958z"/></g><g><path d="M33.9433784,51.1979752c-0.5527344,0-1-0.4472656-1-1V22.7721958c0-0.5527344,0.4472656-1,1-1s1,0.4472656,1,1v27.4257793    C34.9433784,50.7507095,34.4961128,51.1979752,33.9433784,51.1979752z"/></g><g><path d="M46.3965034,56.3776627h-4.5449219c-0.5527344,0-1-0.4472656-1-1s0.4472656-1,1-1h4.5449219c0.5527344,0,1,0.4472656,1,1    S46.9492378,56.3776627,46.3965034,56.3776627z"/></g><g><path d="M26.1465034,56.3776627h-4.5449219c-0.5527344,0-1-0.4472656-1-1s0.4472656-1,1-1h4.5449219c0.5527344,0,1,0.4472656,1,1    S26.6992378,56.3776627,26.1465034,56.3776627z"/></g></g><text x="0" y="83" fill="#000000" font-size="5px" font-weight="bold" font-family="'Helvetica Neue', Helvetica, Arial-Unicode, Arial, Sans-serif">Created by VectorsLab</text><text x="0" y="88" fill="#000000" font-size="5px" font-weight="bold" font-family="'Helvetica Neue', Helvetica, Arial-Unicode, Arial, Sans-serif">from the Noun Project</text></svg>